<svg xmlns="http://www.w3.org/2000/svg" xmlns:xlink="http://www.w3.org/1999/xlink" width="163.591" height="26.28" viewBox="0 0 163.591 26.28">
  <defs>
    <clipPath id="clip-path">
      <rect id="Rectangle_2" data-name="Rectangle 2" width="163.591" height="26.28" transform="translate(0 0)" fill="none"/>
    </clipPath>
  </defs>
  <g id="Group_1" data-name="Group 1" transform="translate(0 0)" clip-path="url(#clip-path)">
    <path id="Path_1" data-name="Path 1" d="M41.292,7.05a6.3,6.3,0,0,0-4.069,1.208A4.67,4.67,0,0,0,35.7,12.094c0,1.865.536,3.129,1.6,3.779a8.416,8.416,0,0,0,4.356.924h4.205l4.4.032a4.359,4.359,0,0,1,2.522.556,2.441,2.441,0,0,1,.7,2.054,1.534,1.534,0,0,1-.429,1.281,4.5,4.5,0,0,1-2.1.552,34.965,34.965,0,0,1-3.81.19H45.8l-4.256-.144a3.982,3.982,0,0,1-2.205-.7,2.668,2.668,0,0,1-.572-2c0-.031-.033-.407-.033-.407l-.032-.333H35.581l-.051,1.073a5.875,5.875,0,0,0,.827,3.394,4.026,4.026,0,0,0,2.6,1.566,17.973,17.973,0,0,0,2.764.389l3.193.048,4.553-.069a13.076,13.076,0,0,0,5.443-.849c1.275-.6,1.926-2.071,1.926-4.369,0-2-.544-3.352-1.622-4.062a8.716,8.716,0,0,0-4.683-1.016H45.979l-4.19-.1a4.309,4.309,0,0,1-2.167-.408c-.383-.242-.574-.8-.574-1.649a1.392,1.392,0,0,1,.547-1.271,4.214,4.214,0,0,1,1.763-.578l2.11-.208,2.473-.034s4.638.133,4.757.133a3.4,3.4,0,0,1,1.813.547,2.555,2.555,0,0,1,.528,1.613l.031.329H56.2V12a5.273,5.273,0,0,0-1.163-3.818,5.321,5.321,0,0,0-3.854-1.167c.032,0-2.741-.16-2.741-.16l-2.508-.019-4.643.213" fill="#006a78"/>
    <path id="Path_2" data-name="Path 2" d="M81.937,15.189c0-2.591-.4-4.435-1.221-5.653a5.36,5.36,0,0,0-3.38-2.3,30.751,30.751,0,0,0-6-.443H69.676c-3.5,0-5.873.593-7.233,1.808-1.376,1.231-2.049,3.526-2.049,7.026,0,2.814.473,4.789,1.448,6.038a6.061,6.061,0,0,0,3.747,2.288,40.855,40.855,0,0,0,6.707.4,20.258,20.258,0,0,0,6.816-.971c1.877-.686,2.825-2.2,2.825-4.5v-.369H78.665l-.025.334a2.73,2.73,0,0,1-.4,1.269,2.368,2.368,0,0,1-1.054.813,6.2,6.2,0,0,1-1.766.43l-2.815.1H71.291l-2.855-.1-1.73-.2a3.388,3.388,0,0,1-2.522-1.583,7.969,7.969,0,0,1-.592-3.183H81.937Zm-18.354-1.61a6.364,6.364,0,0,1,.211-1.514,2.758,2.758,0,0,1,.907-1.342,4.345,4.345,0,0,1,2.165-.811,25.18,25.18,0,0,1,3.523-.225H72.3a15.048,15.048,0,0,1,3.6.337,4.449,4.449,0,0,1,1.808.84,2.443,2.443,0,0,1,.726,1.245,7.376,7.376,0,0,1,.16,1.47Z" fill="#006a78"/>
    <path id="Path_3" data-name="Path 3" d="M96.851,6.837a16.777,16.777,0,0,0-5.115.641,4.146,4.146,0,0,0-2.195,1.76V7.062H86.376V24.129h3.165V14.573c0-2.148.593-3.455,1.812-3.984a15.221,15.221,0,0,1,5.8-.853,10.711,10.711,0,0,1,4.889.84c.959.519,1.448,1.734,1.448,3.617v9.936h3.164V13.938a12.247,12.247,0,0,0-.339-3.119,4.615,4.615,0,0,0-1.689-2.375A6.691,6.691,0,0,0,101.5,7.118a27.635,27.635,0,0,0-4.344-.281Z" fill="#006a78"/>
    <path id="Path_4" data-name="Path 4" d="M114.317,0H111.5V3.806h3.178V0Z" fill="#006a78"/>
    <path id="Path_5" data-name="Path 5" d="M114.317,7.062H111.5V24.128h3.178V7.062Z" fill="#006a78"/>
    <path id="Path_6" data-name="Path 6" d="M139.842,9.525a5.722,5.722,0,0,0-3.573-2.261,35,35,0,0,0-6.331-.427l-2.548.027c-.724.03-1.9.14-3.478.343a4.718,4.718,0,0,0-3.747,2.515A12.725,12.725,0,0,0,119,15.754c0,3.709.87,6.116,2.578,7.123,1.674.994,4.393,1.476,8.323,1.476,4.424,0,7.337-.489,8.9-1.516,1.6-1.058,2.385-3.532,2.385-7.57,0-2.617-.452-4.552-1.341-5.742M136.387,21.07a18.076,18.076,0,0,1-6.44.8H129q-4.021,0-5.522-1.207c-.99-.792-1.491-2.489-1.491-5.081,0-2.708.484-4.414,1.442-5.133s2.785-1.078,5.473-1.078h.728c.989,0,1.855.018,2.583.039s1.7.116,2.918.277a2.871,2.871,0,0,1,2.466,1.947,13.993,13.993,0,0,1,.642,4.734c0,2.6-.617,4.161-1.856,4.7" fill="#006a78"/>
    <path id="Path_7" data-name="Path 7" d="M150.09,7.722a4.649,4.649,0,0,0-1.348,1.2V7.062H145.57V24.128h3.172V14.645c0-2.054.455-3.4,1.348-3.985a9.382,9.382,0,0,1,4.839-.924h.833c1.958,0,3.238.319,3.8.947.576.64.859,1.933.859,3.846V14.9h3.171v-1.12c0-3.015-.664-4.891-2.032-5.743-1.3-.807-3.494-1.2-6.688-1.2a9.707,9.707,0,0,0-4.78.885" fill="#006a78"/>
    <path id="Path_8" data-name="Path 8" d="M5.5,7.814C5.3,5.14,7.632,2.489,8,2.081H0v24.2H10.3c9.979-6.663-4.326-11.057-4.8-18.466" fill="#b1d235"/>
    <path id="Path_9" data-name="Path 9" d="M13.891,2.081c-9.98,6.667,4.325,11.057,4.8,18.466.2,2.675-2.133,5.323-2.508,5.733H24.2V2.081Z" fill="#006a78"/>
  </g>
</svg>
